<?xml version="1.0" encoding="UTF-8"?>
<svg id="Layer_1" data-name="Layer 1" xmlns="http://www.w3.org/2000/svg" viewBox="0 0 90 87.12">
  <defs>
    <style>
      .cls-1 {
        fill: #002d4a;
      }
    </style>
  </defs>
  <path className="cls-1" d="m58.08,21.42c-.01-1.55-.54-2.95-1.78-3.88-1.04-.79-2.23-1.46-3.46-1.91-1.33-.49-2.78-.67-4.22-1,.07-.1.12-.2.19-.26,1.61-1.52,2.43-3.42,2.69-5.59.44-3.62-1.08-7.27-5.28-7.95-.05,0-.09-.06-.13-.09h-2.34c-.21.06-.42.13-.63.19-2.25.56-3.86,1.89-4.48,4.14-.92,3.37-.25,6.44,2.15,9.06.14.15.27.31.49.55-.27.04-.42.07-.57.09-2.01.34-4.01.7-5.8,1.73-2.09,1.21-3.22,2.96-3.18,5.45.05,3.28.01,6.56.01,9.84.01,1.12.5,1.73,1.37,1.71.84-.01,1.3-.59,1.3-1.67,0-3.31.03-6.62,0-9.93-.02-1.45.62-2.45,1.85-3.1.56-.29,1.16-.54,1.77-.71,3.24-.94,6.56-1.19,9.9-.77,1.96.25,3.92.51,5.69,1.49,1.23.68,1.84,1.67,1.82,3.12-.04,3.33-.01,6.67-.01,10.01.01,1,.5,1.56,1.33,1.56s1.33-.57,1.34-1.57c0-3.5,0-7-.01-10.51Zm-10.6-9.54c-1.46,1.88-3.68,1.85-5.16-.02-.99-1.25-1.36-2.7-1.4-4.01.01-3.63,2.81-5.43,5.92-4.08.96.41,1.58,1.14,1.83,2.13.55,2.17.19,4.21-1.19,5.98Z"/>
  <path className="cls-1" d="m81.26,56.45c-2.56-6.6-5.12-13.2-7.68-19.81-.49-1.27-1.21-1.53-2.41-.89-1.91,1.02-3.85,1.99-5.72,3.08-1.31.76-2.62.85-4,.35-1.41-.5-2.81-1.05-4.21-1.58-3.96-1.5-7.78-1.23-11.47.9-.26.15-.75.13-1.02-.01-1.9-.97-3.9-1.58-6.03-1.35-2.09.23-4.16.68-6.23,1.07-1.51.28-2.94.23-4.38-.47-2.76-1.36-5.58-2.61-8.38-3.9-1.08-.49-1.7-.26-2.21.84-2.96,6.28-5.92,12.56-8.87,18.85-.55,1.18-.33,1.77.88,2.31,2.73,1.23,5.47,2.46,8.22,3.65.72.31,1.12.78,1.28,1.51.25,1.08.77,2.18.68,3.23-.09,1.06-.79,2.05-1.22,3.08-.03.07-.07.15-.11.22-1.25,3.08.67,6.49,3.94,7.03.35.06.7.11,1.05.16-.34,4.64,3.79,7.33,7.78,5.46,1.44,2.55,3.75,3.67,7,2.63.75,1.86,2.12,3.03,4.11,3.34,2.05.31,3.68-.53,5.02-2.11,1.98,1.26,3.99,2.29,6.34,1.17s3.25-3.06,3.02-5.58c3.33-.8,4.37-1.99,4.89-5.53,3.41.08,5.99-2.13,5.83-5.99,3.32-.51,4.85-2.26,4.97-5.57.01-.24.29-.57.52-.67,2.47-1.09,4.95-2.13,7.43-3.19,1.18-.51,1.43-1.06.98-2.23Zm-58.84,15.4c-1.01-.28-1.72-1.28-1.81-2.42.15-.44.25-.9.46-1.31.71-1.38,1.45-2.75,2.19-4.11.77-1.41,2.23-1.94,3.49-1.26,1.26.67,1.66,2.19.91,3.6-.76,1.45-1.52,2.89-2.32,4.32-.6,1.07-1.77,1.51-2.92,1.18Zm8.43,4.77c-.77,1.41-2.24,1.89-3.52,1.18-1.23-.69-1.6-2.16-.86-3.55,1.05-1.98,2.1-3.97,3.18-5.94.59-1.06,1.73-1.53,2.83-1.24,1.07.28,1.84,1.29,1.84,2.65-.07.22-.17.69-.38,1.1-1.01,1.94-2.04,3.87-3.09,5.8Zm7.24,2.65c-.55.98-1.58,1.43-2.61,1.24-1.03-.18-1.87-.99-1.98-2.08-.05-.52.06-1.13.29-1.6.82-1.66,1.72-3.29,2.61-4.92.56-1.02,1.74-1.5,2.84-1.22,1.06.27,1.83,1.29,1.83,2.63-.05.16-.1.56-.28.89-.88,1.7-1.77,3.39-2.7,5.06Zm9.4-1.33c-.74,1.46-1.51,2.9-2.32,4.32-.58,1.03-1.71,1.48-2.77,1.2-1.11-.3-1.84-1.23-1.94-2.4.14-.44.24-.91.44-1.32.71-1.38,1.44-2.75,2.19-4.11.71-1.31,2.16-1.77,3.4-1.13,1.22.63,1.68,2.13,1,3.44Zm6.16,3.86c-.64,1.06-1.96,1.5-3.13.98-.65-.29-1.27-.68-1.93-1.03.72-1.54,1.39-2.99,2.11-4.54.73.42,1.63.85,2.42,1.43.97.73,1.15,2.15.53,3.16Zm15.2-17.05c-.85.76-1.98.85-3.09.22-2.89-1.62-5.76-3.25-8.64-4.87-.17-.1-.34-.2-.51-.29-.78-.38-1.52-.21-1.89.43-.39.69-.17,1.46.61,1.91,2.61,1.49,5.22,2.96,7.84,4.43.77.43,1.31,1.03,1.44,1.93.15.99-.17,1.82-1,2.4-.86.59-1.77.63-2.68.13-2.04-1.13-4.08-2.27-6.11-3.41-1.31-.73-2.62-1.47-3.93-2.19-.88-.49-1.64-.34-2.04.35-.42.72-.15,1.47.75,1.98,2.59,1.47,5.19,2.91,7.77,4.39,1.5.86,1.88,2.61.86,3.83-.74.88-1.97,1.19-3.02.64-1.91-1.01-3.8-2.08-5.69-3.13-.12-.07-.24-.16-.33-.25-1.54-1.59-3.38-2.05-5.57-1.44-.44-1.4-1.24-2.54-2.55-3.25-1.31-.71-2.69-.79-4.16-.36-1.05-2.84-3.06-4.14-6.12-3.82-.78-4.37-5.54-6.03-8.91-3.11-.15-.52-.3-1.02-.46-1.51-.4-1.23-1.18-2.1-2.39-2.62-2.45-1.05-4.87-2.16-7.31-3.24-.05-.03-.09-.07-.22-.17,2.65-5.64,5.31-11.3,8.01-17.02.42.18.77.33,1.11.49,2.3,1.06,4.59,2.12,6.88,3.19,1.97.93,3.99.74,6.04.33,1.8-.35,3.6-.7,5.41-.92,1.31-.16,2.59.14,3.84.76-2.5,2.45-4.98,4.83-7.87,6.74-1.2.79-2.43,1.55-3.66,2.31-1.04.65-1.19,1.38-.46,2.36,1.95,2.57,4.38,4.35,7.74,4.46,2.29.07,4.43-.63,6.55-1.41,2.14-.79,4.27-1.58,6.44-2.24,1.28-.39,2.58-.19,3.79.5,4.29,2.46,8.59,4.9,12.88,7.36,1.67.96,1.97,2.94.65,4.11Zm2.52-5.17c-.98-.64-1.84-1.25-2.75-1.77-3.7-2.14-7.48-4.15-11.12-6.39-2.7-1.67-5.42-1.81-8.3-.81-1.91.67-3.78,1.45-5.68,2.14-1.76.64-3.53,1.2-5.45.96-1.74-.22-3.11-1.09-4.33-2.42.15-.11.27-.21.4-.29,3.38-2.07,6.45-4.53,9.27-7.32.94-.93,2.03-1.74,3.13-2.48,3.01-2.04,6.24-2.44,9.68-1.14,1.81.68,3.63,1.38,5.49,1.93,1.57.46,3.13.19,4.59-.6,1.68-.92,3.38-1.81,5.17-2.78,2.33,6.01,4.63,11.93,6.96,17.95-2.44,1.04-4.82,2.06-7.06,3.02Z"/>
  <path className="cls-1" d="m39.78,24.15c0,1.31,0,2.62,0,3.92s0,2.62,0,3.93c-.01.95-.5,1.5-1.3,1.5-.8.01-1.35-.53-1.36-1.46-.02-2.64-.02-5.29,0-7.93.01-.94.53-1.5,1.32-1.51.83-.01,1.33.55,1.34,1.55Z"/>
  <path className="cls-1" d="m52.71,24.08c.02,2.64.02,5.29,0,7.93-.01.94-.53,1.49-1.33,1.49-.83.01-1.32-.55-1.33-1.56-.01-1.3,0-2.61,0-3.92s-.01-2.61,0-3.92c.02-.95.51-1.49,1.31-1.5.79,0,1.34.55,1.35,1.48Z"/>
</svg>