<?xml version="1.0" encoding="UTF-8"?>
<svg id="Layer_1" data-name="Layer 1" xmlns="http://www.w3.org/2000/svg" viewBox="0 0 90 85.33">
  <defs>
    <style>
      .cls-1 {
        fill: #002d4a;
      }
    </style>
  </defs>
  <path className="cls-1" d="m86.66,46.18c-3.23-5.57-6.44-11.14-9.66-16.71-.63-1.09-1.28-1.31-2.3-.73-3.2,1.83-6.39,3.67-9.58,5.53-.88.51-1.05,1.24-.55,2.16.32.59.66,1.17,1.01,1.77-1.51.78-2.94,1.15-4.64.53-3.29-1.22-6.65-2.24-9.97-3.36-1.3-.44-2.67-.65-3.82.11-1.76,1.16-3.26.93-4.93-.18-1.52-1.01-3.29-1.01-4.83-.02-2.58,1.65-5.34,2.21-8.35,1.96-1.05-.09-2.11,0-3.16,0-.25,0-.5-.02-.81-.04.06-.17.09-.29.14-.38.79-1.53.67-1.98-.79-2.82-2.91-1.68-5.82-3.37-8.73-5.05-1.47-.84-1.99-.71-2.83.74-4.12,7.15-8.24,14.29-12.37,21.43-.14.25-.32.47-.49.7v1.05c.25.24.46.54.75.7,3.26,1.91,6.52,3.8,9.8,5.67.8.45,1.45.26,1.98-.47.13-.19.26-.37.41-.58,1.92,1.13,3.81,2.23,5.66,3.32-.72,3.12.95,6.84,5.59,7.11.3,3.6,2.23,5.57,5.84,5.83.29,4.17,3.31,6.19,6.74,5.74.05.13.1.26.14.39.77,2.49,2.97,3.78,5.53,3.31.35-.06.84.13,1.13.36,2.52,2.06,6.25,1.06,7.36-2,.09-.24.17-.48.27-.76,1.77.24,3.36-.09,4.72-1.26,1.36-1.18,1.91-2.73,1.96-4.48,1.69-.01,3.07-.53,4.21-1.67,1.13-1.14,1.59-2.55,1.6-4.14,2.27-.09,4.06-.96,5.14-2.93,1.07-1.96.85-3.93-.28-5.86,2.58-1.49,5.11-2.94,7.7-4.44.34.58.67,1.13.99,1.68.7,1.19,1.32,1.37,2.52.68,2.97-1.71,5.94-3.41,8.89-5.14.49-.29.9-.7,1.35-1.06v-1.05c-1.11-1.88-2.25-3.75-3.34-5.64ZM10.8,56.15c-2.53-1.46-4.98-2.87-7.47-4.32,3.87-6.7,7.7-13.34,11.59-20.07,2.5,1.44,4.96,2.86,7.47,4.32-3.86,6.69-7.69,13.33-11.59,20.07Zm9.39,3.02c-2.09-1.22-3.95-2.31-5.86-3.43.17-.32.29-.58.43-.82,2.71-4.69,5.43-9.38,8.1-14.08.34-.6.73-.79,1.39-.78,2.75.01,5.51-.05,8.26-.05,1.23.01,2.37-.26,3.44-.86.82-.46,1.69-.82,2.49-1.3,1.08-.63,2.05-.5,3.1.32-1.27.64-2.46,1.3-3.7,1.83-1.87.8-2.98,2.14-3.45,4.13-.4,1.73-.96,3.43-1.44,5.15-.64,2.3.48,4,2.86,4.33.99.14,1.97.26,2.96.38,1.36.16,2.42-.33,3.15-1.47.71-1.11,1.39-2.24,2.05-3.38.53-.9,1.26-1.27,2.32-1.25,1.39.02,2.53.44,3.62,1.31,2.19,1.75,4.47,3.39,6.63,5.01-.77.8-1.65,1.48-2.19,2.36-.53.9-.72,2-1.09,3.1-3.79.65-5.29,2.14-5.64,5.75-.84.21-1.68.43-2.52.63-.15.03-.37,0-.47-.1-1.18-1.17-2.61-1.74-4.32-1.72-.03-1.66-.51-3.1-1.67-4.25-1.14-1.13-2.55-1.59-4.1-1.62-.12-.67-.17-1.28-.34-1.86-1.15-3.93-6.05-5.28-9.06-2.47-1.5,1.4-2.91,2.89-4.36,4.34-.22.23-.38.52-.59.8Zm5.46,5.94c-.41.39-1.07.51-1.62.75-1.19-.16-2.04-.65-2.52-1.67-.46-1.01-.41-2.07.36-2.88,1.73-1.82,3.5-3.61,5.33-5.33,1.02-.96,2.6-.82,3.59.15,1.02.99,1.18,2.6.2,3.65-1.72,1.83-3.51,3.6-5.34,5.33Zm5.89,5.81c-.43.41-1.13.53-1.42.66-1.43-.05-2.26-.52-2.74-1.5-.51-1.05-.44-2.12.35-2.95,1.7-1.8,3.46-3.56,5.26-5.27,1.03-.97,2.68-.84,3.66.15.99.99,1.14,2.62.16,3.65-1.7,1.81-3.47,3.56-5.27,5.26Zm6.18,5.58c-1.2,1.19-2.9,1.24-4,.13-1.09-1.09-1.06-2.75.09-3.93,1.58-1.61,3.15-3.23,4.8-4.76.52-.49,1.27-.72,1.91-1.07,1.21.21,2.04.71,2.5,1.69.47,1,.41,2.01-.31,2.89-.47.56-1.02,1.04-1.54,1.56-1.15,1.16-2.29,2.34-3.45,3.49Zm4.86,4.2c-.29.28-.75.39-1.34.67-.49-.39-1.09-.71-1.45-1.2-.46-.62-.33-1.4.19-1.95,1.34-1.39,2.7-2.77,4.1-4.09.72-.68,1.78-.59,2.46.08.68.68.76,1.72.07,2.46-1.3,1.38-2.65,2.71-4.03,4.03Zm5.18,1.37c-.73.63-1.55.61-2.5-.17.64-.59,1.27-1.14,1.87-1.74.22-.22.36-.53.61-.9.83,1.24.76,2.17.02,2.81Zm7.08-5.09c-.37,1.03-1.13,1.62-2.21,1.75-1.26.16-2.13-.48-2.85-1.4-.1-.12-.1-.37-.07-.55.51-3.05-.6-4.87-3.61-5.89,0-.48.07-.9,0-1.29-.21-.97.36-1.17,1.1-1.21.87-.05,1.6.29,2.21.9,1.57,1.58,3.14,3.15,4.72,4.73.84.84,1.13,1.83.72,2.96Zm4.5-4.34c-1.01.48-2.07.44-2.88-.33-1.83-1.72-3.61-3.5-5.33-5.33-.94-1-.79-2.63.16-3.6.96-.97,2.57-1.17,3.59-.22,1.86,1.73,3.64,3.55,5.39,5.4.37.39.47,1.03.7,1.55-.14,1.18-.61,2.04-1.63,2.53Zm6.58-6.36c-1.06,1.07-2.72,1.1-3.86-.01-1.68-1.62-3.33-3.28-4.96-4.96-.83-.86-.97-1.91-.5-3,.44-1.04,1.3-1.53,2.8-1.63.34.18,1.07.39,1.57.85,1.68,1.58,3.3,3.23,4.91,4.88,1.08,1.11,1.08,2.82.04,3.87Zm.68-7.26c-.08-.03-.11-.03-.13-.05-4.39-4.75-9.97-8.02-14.93-12.07-1.71-1.39-3.6-1.84-5.7-1.81-1.7.02-3.05.76-3.98,2.18-.74,1.12-1.39,2.3-2.14,3.42-.15.24-.53.47-.8.46-.9-.04-1.8-.2-2.7-.31-.5-.05-.73-.22-.57-.79.58-1.96,1.07-3.95,1.71-5.9.17-.51.68-1.05,1.18-1.3,3.14-1.62,6.31-3.2,9.51-4.7.57-.26,1.4-.26,2.01-.07,3.21.99,6.41,2.02,9.56,3.18,2.22.81,4.33.86,6.46-.17.29-.13.6-.22.97-.36,2.59,4.5,5.18,8.97,7.81,13.54-2.82,1.62-5.56,3.19-8.26,4.75Zm12.6-2.87c-3.86-6.69-7.7-13.34-11.59-20.07,2.52-1.46,4.94-2.86,7.47-4.32,3.86,6.68,7.7,13.33,11.59,20.07-2.47,1.43-4.91,2.85-7.47,4.32Z"/>
  <path className="cls-1" d="m44.83,0c-9.07.09-16.42,7.6-16.32,16.68.1,8.98,7.58,16.37,16.53,16.3,9.12-.07,16.51-7.51,16.44-16.55C61.41,7.27,53.95-.1,44.83,0Zm.11,30.16c-7.53-.03-13.65-6.22-13.62-13.78.03-7.43,6.24-13.6,13.65-13.57,7.57.02,13.73,6.17,13.7,13.69-.02,7.55-6.19,13.69-13.73,13.66Z"/>
  <path className="cls-1" d="m52.09,14.18c-1.07.91-2.17,1.79-3.26,2.68-1.58,1.3-3.16,2.6-4.76,3.89-1.01.82-1.74.72-2.51-.33-.89-1.2-1.76-2.41-2.63-3.62-.64-.89-.57-1.72.17-2.23.7-.48,1.47-.27,2.1.59.65.86,1.28,1.74,1.97,2.7,2.29-1.88,4.49-3.67,6.69-5.47.16-.13.3-.27.47-.39.69-.47,1.49-.38,1.97.21.47.58.41,1.43-.21,1.97Z"/>
</svg>