<?xml version="1.0" encoding="UTF-8"?>
<svg id="Layer_1" data-name="Layer 1" xmlns="http://www.w3.org/2000/svg" viewBox="0 0 90 87.12">
  <defs>
    <style>
      .cls-1 {
        fill: #002d4a;
      }
    </style>
  </defs>
  <path className="cls-1" d="m60.35,53.95c0-1.85.03-3.72-.01-5.59-.18-7.87-6.31-14.73-14.12-15.29-4.95-.36-9.96-.07-14.95-.06-.3,0-.6.06-.89.12-7.9,1.52-13.18,7.92-13.19,15.99-.01,7.62-.01,15.24-.01,22.86,0,1.78.42,2.2,2.18,2.21h20.2c2.57,9.7,11.48,13.79,18.8,12.78,7.15-.99,13.21-6.9,14.3-14.3,1.12-7.55-3.33-16.09-12.31-18.72Zm-21.26,17.27h-18.96c-.01-.33-.04-.63-.04-.92,0-7.11-.01-14.21,0-21.32.01-6.42,4.26-11.66,10.54-12.93.91-.19,1.86-.25,2.79-.26,3.57-.03,7.14-.02,10.7-.01,7.61.02,13.31,5.71,13.33,13.3v4.41c-10.13-.77-18.83,7.46-18.36,17.73Zm17.05,12.99c-7.81.03-14.07-6.16-14.08-13.92-.02-7.67,6.2-13.89,13.9-13.91,7.7-.01,13.96,6.23,13.98,13.96.02,7.5-6.29,13.85-13.8,13.87Z"/>
  <path className="cls-1" d="m38.82,0c-8.4-.02-15.26,6.8-15.27,15.18-.02,8.37,6.84,15.25,15.21,15.26,8.33.01,15.2-6.82,15.23-15.15C54.02,6.9,47.2.02,38.82,0Zm-.04,27.54c-6.78,0-12.35-5.58-12.33-12.36.02-6.75,5.55-12.27,12.31-12.27,6.8-.01,12.35,5.55,12.33,12.34-.02,6.74-5.57,12.28-12.31,12.29Z"/>
  <path className="cls-1" d="m66.7,67.7c-.37-1.07-1.14-1.67-2.26-1.83-1.11-.16-2.22-.3-3.31-.52-.3-.06-.64-.31-.79-.57-.54-.97-1-1.99-1.51-2.99-.5-1-1.3-1.56-2.44-1.57-1.15,0-1.95.55-2.46,1.56-.48.97-.92,1.97-1.46,2.91-.18.3-.57.6-.92.67-1.03.22-2.08.36-3.13.49-1.16.14-1.98.73-2.36,1.83-.39,1.15-.03,2.13.83,2.96.68.64,1.31,1.35,2.03,1.94.57.48.67.99.53,1.66-.23,1.1-.39,2.2-.54,3.04-.06,2.34,1.88,3.67,3.79,2.83.94-.42,1.85-.89,2.73-1.43.66-.4,1.21-.44,1.89-.01.78.5,1.64.89,2.47,1.33.99.52,1.97.54,2.91-.1.94-.65,1.29-1.58,1.12-2.69-.15-1.01-.32-2.03-.52-3.03-.13-.62-.03-1.08.47-1.52.78-.67,1.49-1.41,2.21-2.14.79-.8,1.09-1.74.72-2.82Zm-5.38,3.3c-.86.81-1.22,1.75-.99,2.93.21,1.06.36,2.13.56,3.34-.97-.51-1.84-.91-2.66-1.4-1.23-.73-2.42-.77-3.66-.01-.81.5-1.69.89-2.69,1.41.21-1.29.37-2.38.58-3.47.18-1.01-.09-1.85-.8-2.57-.8-.81-1.61-1.62-2.53-2.54,1.08-.16,2.04-.34,3.01-.44,1.36-.13,2.3-.76,2.84-2.04.39-.9.88-1.77,1.4-2.82.53,1.05,1.02,1.94,1.42,2.86.55,1.28,1.51,1.88,2.86,2,.95.09,1.89.27,2.97.43-.83.84-1.54,1.61-2.31,2.32Z"/>
</svg>