<?xml version="1.0" encoding="UTF-8"?>
<svg id="Layer_1" data-name="Layer 1" xmlns="http://www.w3.org/2000/svg" viewBox="0 0 90 87.12">
  <defs>
    <style>
      .cls-1 {
        fill: #002d4a;
      }
    </style>
  </defs>
  <path className="cls-1" d="m71.09,35.31c-1.07-.04-1.97-.43-2.69-1.3,2.08-1.46,3.39-3.4,3.66-5.9.14-1.29.09-2.61.06-3.91-.1-4.17-3.41-7.63-7.54-7.92-4.21-.3-7.98,2.61-8.62,6.79-.2,1.33-.15,2.71-.15,4.07.01,2.62,1.1,4.76,3.12,6.42.19.15.39.3.67.53-.52.36-.98.67-1.42.98-.14-.13-.22-.17-.26-.24-1.28-2.45-3.32-3.61-6.07-3.62-.99,0-1.84-.45-2.47-1.26,2.45-2.12,3.36-3.52,3.63-5.93.14-1.29.09-2.61.06-3.91-.1-4.16-3.42-7.63-7.55-7.92-4.21-.29-7.97,2.62-8.61,6.8-.21,1.33-.16,2.71-.15,4.07.01,2.59,1.07,4.71,3.06,6.36.21.18.42.35.64.52-.86.95-1.56,1.26-2.88,1.29-1.99.04-3.63.82-4.88,2.36-.35.43-.63.93-1.01,1.51-.48-.34-.94-.66-1.43-1,2.51-2.18,3.44-3.59,3.69-6,.15-1.41.12-2.84.04-4.25-.22-4.03-3.6-7.36-7.61-7.58-4.17-.23-7.89,2.65-8.51,6.72-.21,1.36-.17,2.77-.16,4.16,0,2.63,1.1,4.75,3.13,6.41.18.16.37.31.58.48-.77.88-1.71,1.25-2.81,1.27-3.71.09-6.34,2.76-6.36,6.46-.01,2.24,0,4.48,0,6.72.01,1.34.46,1.79,1.79,1.79h23.64c1.33,0,1.78-.45,1.79-1.78v-3.62h10.89c0,1.27-.01,2.51,0,3.75.01,1.16.5,1.65,1.67,1.65h23.9c1.16,0,1.64-.5,1.64-1.67.01-2.21.01-4.42.01-6.63-.01-3.95-2.53-6.53-6.49-6.67Zm-12.56-8.05c-.01-.51,0-1.02,0-1.53h-.06c.06-.79.03-1.59.18-2.36.55-2.77,3.04-4.62,5.81-4.37,2.75.24,4.9,2.54,4.94,5.34.02,1.3.08,2.63-.15,3.89-.48,2.76-3.08,4.62-5.82,4.34-2.73-.28-4.83-2.55-4.9-5.31Zm8.69,9.5c-1.7,1.6-4.86,1.59-6.49,0,.4-.44.76-.91,1.19-1.31.19-.17.52-.25.79-.25.79-.03,1.58.08,2.36-.01.51-.05.83.01,1.13.45.29.41.67.75,1.02,1.12Zm-27.7-13.16c-.11-1.46-.12-2.96.12-4.4.47-2.72,3.03-4.53,5.77-4.29,2.72.25,4.86,2.52,4.94,5.27.02.51,0,1.02,0,1.53s.02,1.02,0,1.53c-.09,2.83-2.4,5.16-5.21,5.26-2.88.1-5.42-2.04-5.62-4.9Zm8.64,9.08c-1.74,1.57-4.64,1.59-6.49.03.41-.48.8-.99,1.26-1.43.16-.15.49-.16.75-.17.81-.01,1.63-.03,2.44.02.31.02.68.13.91.33.41.34.73.78,1.13,1.22Zm-27.74-5.42c-.01-.51,0-1.02,0-1.53h-.05c.05-.79.03-1.6.18-2.37.54-2.76,3.04-4.62,5.81-4.36,2.75.25,4.9,2.55,4.93,5.35.02,1.3.08,2.62-.14,3.89-.49,2.76-3.09,4.61-5.83,4.33-2.73-.29-4.83-2.56-4.9-5.31Zm8.66,9.55c-1.8,1.53-4.69,1.53-6.46-.03.4-.46.78-.95,1.22-1.37.16-.15.48-.22.72-.22.42,0,.88.2,1.26.1,1.51-.41,2.49.24,3.26,1.52Zm7.63,10.7H15.05c-.02-.16-.07-.34-.07-.53-.01-1.78-.02-3.57,0-5.35.02-2.04,1.51-3.5,3.54-3.61.87-.06,1.5.16,2.17.77,2.78,2.49,6.87,2.61,9.87.4.2-.15.4-.3.75-.56,0,1.51-.01,2.88,0,4.24,0,1.57.39,1.96,1.95,1.97h3.45v2.67Zm-2.67-5.46c0-1.64-.06-3.23.01-4.81.07-1.73,1.51-3.12,3.23-3.28.95-.09,1.71.05,2.51.77,2.91,2.62,7.28,2.57,10.28.04.37-.32.78-.79,1.2-.82,1.04-.09,2.1-.03,3.01.64.89.67,1.46,1.54,1.5,2.65.06,1.58,0,3.17,0,4.81h-21.75Zm40.82,5.45h-21.74v-2.66c1.24,0,2.45,0,3.66-.01,1.28,0,1.74-.46,1.74-1.74.01-1.43,0-2.87,0-4.17,1.28.56,2.48,1.3,3.78,1.61,2.76.67,5.19-.16,7.28-2.08.25-.23.66-.39,1.01-.42,2.71-.22,4.48,1.6,4.29,4.4-.12,1.66-.02,3.34-.02,5.07Z"/>
  <path className="cls-1" d="m79.19,58.76c-1.03.19-2.04.49-3.05.76-8.27,2.26-16.54,4.52-24.82,6.76-.27.08-.71.06-.88-.1-2.76-2.74-5.57-5.42-8.18-8.3-1.49-1.66-3.08-2.3-5.32-2.21-4.1.18-8.21.05-12.41.05-.01-.26-.03-.43-.03-.59-.03-1.82-.33-2.13-2.13-2.13H4.68c-1.56,0-1.95.39-1.95,1.96v21.26c0,2.61-.01,5.22,0,7.83,0,1.04.48,1.6,1.44,1.6,3.57.02,7.15.02,10.72.01.9-.01,1.4-.54,1.44-1.44.02-.41,0-.83,0-1.28,2.28,0,4.43.01,6.58,0,1.07-.01,1.56-.51,1.59-1.56.01-.36,0-.72,0-1.16,1.27,0,2.45.04,3.63-.01,3.39-.12,6.74-.07,9.9,1.4.53.25,1.15.33,1.68.59,1.66.8,3.29.83,4.95-.02.37-.19.79-.28,1.2-.42,13.27-4.56,26.54-9.12,39.82-13.69,1.25-.43,1.42-.69,1.42-2.05,0-.23.01-.45,0-.68-.03-4.35-3.64-7.36-7.91-6.58ZM13.57,82.9H5.51v-27.14h8.06v27.14Zm8.15-2.72h-5.34v-24.39h5.34v24.39Zm61.93-14.26c-13.55,4.63-27.09,9.3-40.64,13.93-.49.16-1.08.03-1.62.02-.14,0-.27-.08-.4-.14-4.46-1.91-9.1-2.64-13.93-2.24-.81.07-1.63.01-2.52.01v-19.02c.25-.02.47-.03.69-.03,4.34-.01,8.67-.02,13.01,0,.37.01.83.19,1.1.45,2.85,2.8,5.67,5.63,8.49,8.46,1.16,1.17,1.24,2.67.21,3.71-1.03,1.04-2.54.98-3.7-.17-1.99-1.98-3.97-3.97-5.96-5.96-.2-.19-.41-.38-.65-.61-.6.66-1.18,1.3-1.8,1.97.09.11.25.3.43.48,2,2,4.01,4,6.01,6.01,1.61,1.62,3.52,2.19,5.68,1.41,2.08-.75,3.22-2.33,3.38-4.56.03-.45.2-.62.62-.74,9.04-2.45,18.07-4.94,27.12-7.37,2.64-.71,4.84.73,5.19,3.2.09.63-.05.95-.71,1.18Z"/>
  <rect className="cls-1" x="84.41" y="42.73" width="2.62" height="2.58"/>
  <rect className="cls-1" x="43.77" y="1.32" width="2.6" height="2.64"/>
  <path className="cls-1" d="m57.37,3.14c-.26.87-.51,1.69-.78,2.6-.87-.24-1.65-.45-2.5-.68.2-.88.4-1.71.62-2.64.9.24,1.73.47,2.66.72Z"/>
  <path className="cls-1" d="m11.33,22.71c-.46.8-.87,1.5-1.3,2.24-.82-.44-1.58-.84-2.39-1.28.47-.8.9-1.55,1.39-2.4.78.49,1.5.94,2.3,1.44Z"/>
  <path className="cls-1" d="m26.33,8.63c-.78.45-1.48.86-2.24,1.29-.48-.76-.92-1.47-1.43-2.28.78-.46,1.54-.91,2.38-1.4.45.83.86,1.59,1.29,2.39Z"/>
  <path className="cls-1" d="m67.47,7.79c-.52.82-.97,1.53-1.46,2.3-.76-.45-1.48-.87-2.23-1.31.43-.8.83-1.54,1.28-2.38.8.46,1.56.9,2.41,1.39Z"/>
  <path className="cls-1" d="m86.13,34.38c-.91.2-1.75.39-2.64.58-.22-.83-.42-1.62-.65-2.49.83-.25,1.66-.49,2.6-.78.23.9.45,1.75.69,2.69Z"/>
  <path className="cls-1" d="m14.35,18.47c-.52.69-1.01,1.34-1.57,2.06-.71-.5-1.41-1-2.21-1.57.58-.76,1.11-1.45,1.69-2.2.72.59,1.38,1.13,2.09,1.71Z"/>
  <path className="cls-1" d="m41.17,4.16c-.89.12-1.67.22-2.57.34-.14-.87-.29-1.72-.44-2.66.89-.13,1.75-.25,2.72-.38.1.91.19,1.76.29,2.7Z"/>
  <path className="cls-1" d="m79.46,19.23c-.76.53-1.46,1.03-2.22,1.56-.53-.7-1.02-1.35-1.56-2.06.68-.56,1.35-1.1,2.1-1.71.57.75,1.1,1.45,1.68,2.21Z"/>
  <path className="cls-1" d="m7.06,32.17c-.22.84-.42,1.62-.64,2.51-.92-.21-1.74-.41-2.65-.62.25-.91.47-1.77.71-2.67.89.27,1.7.51,2.58.78Z"/>
  <path className="cls-1" d="m86.84,48.21c-.14.94-.26,1.79-.39,2.73-.92-.16-1.76-.32-2.65-.48.12-.87.22-1.67.34-2.56.9.1,1.75.2,2.7.31Z"/>
  <path className="cls-1" d="m5.92,37.24c-.11.86-.21,1.65-.33,2.57-.94-.09-1.77-.18-2.69-.26.12-.93.22-1.78.35-2.73.9.14,1.75.27,2.67.42Z"/>
  <path className="cls-1" d="m36.02,4.99c-.82.22-1.6.43-2.48.67-.26-.84-.51-1.67-.79-2.59.89-.24,1.72-.46,2.67-.72.22.94.4,1.76.6,2.64Z"/>
  <path className="cls-1" d="m71.95,11.07c-.6.73-1.14,1.38-1.73,2.08-.69-.53-1.34-1.04-2.05-1.59.53-.73,1.04-1.42,1.6-2.19.74.58,1.42,1.11,2.18,1.7Z"/>
  <path className="cls-1" d="m8.89,27.3c-.35.85-.65,1.58-.99,2.39-.83-.31-1.64-.61-2.54-.94.35-.86.68-1.66,1.05-2.56.87.38,1.67.74,2.48,1.11Z"/>
  <path className="cls-1" d="m5.99,50.18c-.91.15-1.75.3-2.67.46-.12-.94-.24-1.79-.36-2.73.9-.1,1.73-.19,2.68-.3.12.89.23,1.69.35,2.57Z"/>
  <path className="cls-1" d="m85.85,53.66c-.24.89-.46,1.71-.72,2.67-.88-.28-1.7-.54-2.6-.82.24-.84.47-1.64.71-2.49.87.22,1.68.42,2.61.64Z"/>
  <path className="cls-1" d="m62.57,5.13c-.39.85-.74,1.64-1.12,2.47-.81-.34-1.56-.65-2.4-1,.33-.87.63-1.65.97-2.53.87.36,1.66.69,2.55,1.06Z"/>
  <path className="cls-1" d="m84.58,29.04c-.87.32-1.68.62-2.55.93-.33-.82-.63-1.57-.96-2.39.82-.36,1.59-.71,2.48-1.1.34.84.67,1.66,1.03,2.56Z"/>
  <path className="cls-1" d="m21.91,11.36c-.68.53-1.31,1.03-2.04,1.6-.6-.72-1.13-1.37-1.73-2.09.72-.56,1.41-1.09,2.19-1.7.54.74,1.04,1.44,1.58,2.19Z"/>
  <path className="cls-1" d="m86.97,39.87c-.97.08-1.84.15-2.72.22-.1-.92-.19-1.69-.29-2.55.88-.13,1.7-.26,2.66-.42.12.93.23,1.8.35,2.75Z"/>
  <path className="cls-1" d="m51.95,1.86c-.14.9-.27,1.74-.41,2.69-.91-.13-1.7-.24-2.57-.36.08-.89.17-1.72.26-2.68.9.12,1.74.22,2.72.35Z"/>
  <path className="cls-1" d="m31.06,6.49c-.85.35-1.57.65-2.39.99-.37-.82-.73-1.6-1.13-2.46.86-.36,1.66-.69,2.56-1.07.32.85.62,1.66.96,2.54Z"/>
  <path className="cls-1" d="m75.9,14.98c-.61.55-1.26,1.15-1.88,1.72-.64-.6-1.21-1.15-1.89-1.78.66-.69,1.23-1.3,1.81-1.91.65.65,1.26,1.26,1.96,1.97Z"/>
  <path className="cls-1" d="m5.43,42.41v2.58c-.86.04-1.72.08-2.64.12v-2.7h2.64Z"/>
  <path className="cls-1" d="m17.86,14.64c-.62.61-1.22,1.19-1.86,1.81-.61-.57-1.24-1.16-1.9-1.78.66-.67,1.27-1.29,1.95-1.98.65.71,1.23,1.32,1.81,1.95Z"/>
  <path className="cls-1" d="m82.35,23.97c-.85.44-1.59.83-2.4,1.25-.44-.75-.84-1.45-1.28-2.23.77-.48,1.5-.93,2.3-1.43.46.81.89,1.56,1.38,2.41Z"/>
</svg>